<svg xmlns="http://www.w3.org/2000/svg" xmlns:xlink="http://www.w3.org/1999/xlink" width="1329.011" height="586.376" viewBox="0 0 1329.011 586.376"><defs><style>.a{fill:#fff;}.b{clip-path:url(#a);}.c{clip-path:url(#b);}.d{clip-path:url(#c);}.e{clip-path:url(#d);}.f{clip-path:url(#e);}.g{clip-path:url(#f);}</style><clipPath id="a"><rect class="a" width="150.711" height="147.427" transform="matrix(0.864, 0.503, -0.503, 0.864, 75.189, 0)"/></clipPath><clipPath id="b"><rect class="a" width="93.205" height="91.175" transform="matrix(0.864, 0.503, -0.503, 0.864, 1074.18, 11.397)"/></clipPath><clipPath id="c"><rect class="a" width="136.161" height="133.509" transform="matrix(0.965, -0.263, 0.263, 0.965, 55, 445.631)"/></clipPath><clipPath id="d"><rect class="a" width="165.126" height="166.921" transform="matrix(-0.263, 0.965, -0.965, -0.263, 1330, 427.042)"/></clipPath><clipPath id="e"><rect class="a" width="185.343" height="184.524" transform="matrix(0.503, -0.864, 0.864, 0.503, 130.683, 186.866)"/></clipPath><clipPath id="f"><rect class="a" width="135.953" height="135.352" transform="matrix(-0.503, 0.864, -0.864, -0.503, 1261.02, 220.708)"/></clipPath></defs><g transform="translate(-0.989)"><g class="b"><path class="a" d="M88.064,51.557c.731.859,1.44,1.705,2.184,2.542,5.848,6.516,6.618,13.825,2.1,20.385-3.993,5.821-11.47,7.771-19.547,4.433-5.249-2.148-7.794-3.77-12.823-6.445-.624-.324-3.357-1.726-3.886-2.826-.873-1.8.289-5.879,3.252-10.151,1.63-2.363,3.633-2.027,5.832-.69,2.91,1.769,5.623,3.871,8.507,5.685a24.746,24.746,0,0,0,6.166,2.846c1.232.314,2.84.811,3.965-.95,1.216-1.916.668-3.087-.714-4.582-.954-1.045-3.128-2.219-5.637-3.642C73.394,56,71.54,54.179,70.894,51.739c-.767-2.953.757-6.265,4.589-9.452,6.985-5.783,18.67-3.864,24.939,1.884,1.815,1.681,1.108,3.5-.076,5.259-1.568,2.309-1.754,3.448-5.146,2.294A21.958,21.958,0,0,0,89,50.278C87.808,50.2,87.412,50.921,88.064,51.557ZM59.98,66.875a.6.6,0,0,0,.223.749c5.509,3.451,10.972,6.876,17.361,8.368,5.409,1.261,9.519-.346,11.936-4.307a11.75,11.75,0,0,0-.924-13.972c-1.1-1.306-2.437-2.419-3.5-3.735a3.915,3.915,0,0,1,2.846-6.383,13.263,13.263,0,0,1,6.035.965c.8.277,2.776,1.278,3.312.161.453-.72,1.424-1.3-1.686-3.03a17.89,17.89,0,0,0-8.175-2.5,14.143,14.143,0,0,0-8.679,2.867c-3.916,3.021-4.054,5.668.125,8.1,3.288,1.895,6.981,3.664,8.334,7.364a8.323,8.323,0,0,1-2.273,9.255c-2.391,2.376-5.435,2.426-8.415,1.239a30.225,30.225,0,0,1-5.721-3.038c-2.854-1.915-5.59-4.03-8.579-6.229a.263.263,0,0,0-.392.1Z"/><path class="a" d="M116.349,66.832c1.288.938,3.909,2.632,5.608,1.434,1.027-.721,6.086-6.56,7.759-7.921,1.723-1.392,3.266-3.864,5.954-1.717,3.065,2.479,4.112,5.058,2.4,7.612-2.34,3.471-4.953,6.787-7.506,10.107-4.688,6.079-9.443,12.119-14.13,18.2-3.15,4.078-5.029,4.2-9.074,2.051-3.127-1.656-3.23-3.788-1.743-6.114,2.638-4.131,9.291-11.554,8.3-12.382-.968-.816-2.2-1.486-3.178-1.21-.82.216-1.671,1.3-2.328,2.115-2.645,3.269-5.121,6.662-7.852,9.823-2.858,3.325-4.4,3.43-7.6,1.023-3.13-2.368-3.671-4.63-1.331-7.893,6.478-8.973,13.26-17.744,19.625-26.781a24.035,24.035,0,0,1,3.032-3.671c1.427-1.352,3.446-.889,6-.152,3.114.908,3.6,1.868,1.918,4.791-2,3.4-3.982,6.776-5.979,10.174C116.065,66.493,116.181,66.707,116.349,66.832Zm2.564-12.111c-2.362-1.162-2.617-.626-3.85,1.37-1.425,2.272-2.762,4.239-4.065,6.047-5.214,7.232-10,14.086-15.042,21.443C94.8,85.236,93.75,86,95.5,86.967c1.615.946,1.729.033,3.109-1.495,2.46-2.751,4.8-5.6,7.191-8.391,3.008-3.477,3.952-3.8,8.262-2.363,3.175,1.061,4.674,2.563,2.977,5.451-2.1,3.634-4.559,7.04-6.777,10.61-1.3,2.107-1.692,2.417-.529,3.106,1.762,1.207,2.621-.409,3.3-1.15,3.265-3.658,6.4-7.449,9.407-11.34q6.02-7.782,11.69-15.791c.678-.948,2.583-2.652.729-3.7-.6-.368-.712-.789-2.178.63-1.976,2.079-2.8,3.271-4.727,5.376-2.317,2.507-3.42,3.717-5.314,4.272-2,.583-3.634.131-6.112-1.038a16.068,16.068,0,0,1-4.225-2.456c-.948-.745-.21-2.1.809-4.044C114.881,61.378,119.89,55.008,118.913,54.72Z"/><path class="a" d="M110.11,128.547c-3.444,4.681-6.676,9.156-10.018,13.51-2.493,3.266-5.017,6.485-7.777,9.54-2.4,2.64-4.137,2.629-7.052.561a24.3,24.3,0,0,1-2.2-1.693c-2.828-2.523-3.2-4.1-1.014-7.151,3.516-4.906,7.336-9.611,10.965-14.454,2.075-2.762,4.073-5.6,6.195-8.541-1.071-.845-1.942-1.517-2.814-2.189-3-2.326-2.408-4.624-.813-7.185,2.384-3.8,3.939-4.548,7.251-2.848,6.261,3.2,12.427,6.606,18.636,9.891,2.142,1.126,2.137,2.93,1.371,4.747a48.842,48.842,0,0,1-3.171,5.962c-1.677,2.751-3.269,3.151-6.209,1.691C112.345,129.874,111.286,129.213,110.11,128.547ZM88.52,149.592a.561.561,0,0,0,.823-.067c2.084-2.52,11.142-14.088,15.608-19.789,1.941-2.483,3.337-4.653,4.556-5.087,1.327-.461,1.661.2,4.71,1.784,1.474.776,1.474.776,2.095.181,1.262-1.328,3.7-5.482,2.674-5.681l-16.64-9.44c-.611-.346-1.2-.679-1.786-1.013-2.938,3.665-2.872,4.117.741,6.434,2.06,1.316,3.675,3.032,1.417,6.1-2.832,3.844-5.247,7.954-8.056,11.811s-5.831,7.563-8.837,11.4a.755.755,0,0,0,.089,1.028C86.742,148.05,87.7,148.831,88.52,149.592Z"/><path class="a" d="M174.514,94.051c-2.667,4.026-7.6,5.85-13.439,5.735-3.06-.077-3.551.5-5.1,2.469a113.407,113.407,0,0,1-8.062,8.845c-2.095,2.129-4.341,1.95-6.544-.1-2.434-2.27-2.98-4.06-1.112-6.674,5.025-7.013,10.227-13.866,15.375-20.78,1.541-2.058,3.159-4.043,4.746-6.075,1.928-2.461,3.257-3.543,6.1-2.49C175.043,78.119,179.135,86.187,174.514,94.051Zm-9.656-15.786c-3.513,4.85-6.619,9.16-9.919,13.6-3.48,4.691-7.082,9.282-10.494,14.011-.486.672-1.758,2.171-.446,2.709,1.289.731,2.022-.364,2.549-.953,2.207-2.422,4.674-5.287,6.858-7.721,2.985-3.283,3.72-4.791,8.07-4.19A9.6,9.6,0,0,0,172.1,89.036c1.025-3.95-.09-7.337-5.748-10.073A15.724,15.724,0,0,1,164.858,78.266Z"/><path class="a" d="M55.752,129.581c6.989-8.713,13.91-17.464,21.011-26.113,2.628-3.189,7.169-2.094,11.219,1.892,1.148,1.125.073,3.21-.715,4.244q-10.412,13.332-21.191,26.367c-2.878,3.462-5.04,3.805-8.008,2.033C53.915,135.529,52.6,134.016,55.752,129.581Zm1.837,4.005c1.789,1.725,2.933,2.345,3.619,1.845,1.495-1.107,11.35-13.673,15.718-19.105,2.42-3.04,4.772-6.12,7.186-9.253a.179.179,0,0,0-.054-.267l-3.03-1.719a.424.424,0,0,0-.5.074c-4.4,5.085-9.848,11.475-14.309,16.913C61.068,128.332,56.819,132.793,57.589,133.586Z"/><path class="a" d="M131.931,99.723c-1.37,1.562-3.715,3.757-5.914,2.984-4.19-1.489-6.178-4.927-3.445-8.5,6.065-7.963,12.38-15.785,18.7-23.571,1.986-2.457,3.624-2.269,6.913.189,2.426,1.821,2.857,3.961,1.237,6.359C148.784,78.122,137.429,93.393,131.931,99.723Zm12.813-26.884c-.971-.965-7.473,8.2-10.723,12.4a109.4,109.4,0,0,0-8.2,11.342c-.745,1.266-1.295,2.05-.346,2.588.969.609,1.313.537,2.7-.749a12.9,12.9,0,0,0,1.263-1.328c5.361-6.97,10.668-14,16.12-20.92C146.942,74.382,146.742,74.209,144.744,72.839Z"/><path class="a" d="M108.508,152.1c2.766-4.5,6.654-4.193,9.173-2.734,4.567,2.591,5.078,6.287,2.732,10.229a7.055,7.055,0,0,1-9.649,2.671A7.335,7.335,0,0,1,108.508,152.1Zm7.108.626a2.325,2.325,0,0,0-1.614-.382,4.4,4.4,0,0,0-2.146,2.011c-1.017,2.089-.441,3.008.893,3.765a3.032,3.032,0,0,0,3.815-1.005C117.778,155.052,117.651,153.884,115.616,152.729Z"/><path class="a" d="M161.622,88.338c.437-.641,1.922-2.553,2.15-2.838,1.176-1.436,1.705-1.669,2.4-1.571.52.088,1.206.358,1.164,1.046-.085,1.581-2.792,5.11-3.981,6.006a1.479,1.479,0,0,1-1.776.148C160,90.437,161.185,88.979,161.622,88.338Z"/></g><g class="c"><path class="a" d="M1073.64,23.106c.41-.714.91-1.368,1.33-2.082a2.808,2.808,0,0,1,3.48-1.23,11.468,11.468,0,0,1,2.49,1.007q25.515,13.958,51.02,27.935c4.43,2.422,8.85,4.893,13.25,7.356,2.61,1.462,2.71,1.83,1.2,4.342-7.84,12.9-15.79,25.736-23.44,38.746a14.261,14.261,0,0,1-7.97,6.489c-5.67,2.039-11.34,4.078-17.02,6.06-4.29,1.5-8.63,2.889-12.94,4.383a5.127,5.127,0,0,1-4.56-.425q-19.995-11.233-40.06-22.342c-.67-.381-1.34-.775-1.97-1.189-2.38-1.569-2.82-3.159-1.39-5.626C1043.3,75.8,1067.55,33.43,1073.64,23.106Zm69.82,36.073q-33.075-18.241-65.9-36.339-19.14,33.189-38.1,66.112,21.225,11.71,42.26,23.3c.78-1.333,1.46-2.593,2.24-3.82,3.23-5.09,6.43-10.2,9.79-15.2.96-1.415,2.12-3.159,4.47-2.153s4.79,1.874,7.04,3.059c4.19,2.23,8.28,4.66,12.42,7.008Q1130.55,80.195,1143.46,59.179Zm-46.25,34.857c-3.54,6.018-7.06,12.022-10.61,18.053q14.625-4.809,29.2-9.579C1109.67,99.71,1103.58,96.934,1097.21,94.035Z"/></g><g class="d"><path class="a" d="M66.765,458.291c-.318-1.165-.493-2.344-.811-3.509-.588-2.248.44-3.767,2.306-4.811a16.774,16.774,0,0,1,3.629-1.484q41.089-11.5,82.167-22.954c7.132-2,14.3-3.934,21.455-5.865,4.236-1.139,4.728-.86,5.807,3.276,5.469,21.308,10.755,42.664,16.543,63.888a20.249,20.249,0,0,1-1.414,14.809c-3.72,7.874-7.44,15.747-11.224,23.565-2.861,5.918-5.888,11.759-8.771,17.683a7.357,7.357,0,0,1-5.164,4.194q-32.5,8.7-64.948,17.6c-1.1.288-2.2.554-3.286.769-4.111.794-6.245-.4-7.362-4.4C90.863,543.611,71.338,475.151,66.765,458.291Zm110.178-33.643q-53.406,14.745-106.4,29.382Q85.682,507.8,100.723,561.121,135,551.665,168.95,542.27c-.593-2.174-1.211-4.173-1.7-6.23-2.014-8.55-4.1-17.082-5.876-25.669-.494-2.441-1.135-5.419,2.359-6.771,3.5-1.33,6.927-2.928,10.5-3.989,6.68-1.951,13.469-3.594,20.22-5.372C188.627,471.08,182.807,447.942,176.943,424.648ZM165.8,507.691l8.031,29.45q10.066-19.837,20.11-39.573C184.659,500.9,175.441,504.217,165.8,507.691Z"/></g><g class="e"><path class="a" d="M1265.99,552.906c-2.05-.54-4.04-2.16-5.78-3.623-5.47-4.547-10.87-9.279-14.81-15.229-6.5-9.726-15.05-17.775-21.9-27.21s-14.3-18.463-21.49-27.633c-3.39-4.325-6.76-8.643-10.23-12.927-3.61-4.44-5.51-9.7-7.36-14.953-3.81-10.763-6.17-21.884-8.37-33.023-.05-.34-.05-.694-.11-1.007-.25-1.071-.23-2.131.98-2.61s1.85.4,2.6,1.186c.67.739,15.72,10.025,22.21,14.367a142.18,142.18,0,0,1,13.89,10.667c2.19,1.879,3.69,4.579,5.49,6.917,12.68,16.5,25.41,32.985,37.98,49.577,2.84,3.733,5.08,7.873,7.69,11.756,1.07,1.611,2.4,3.026,3.54,4.6a93.479,93.479,0,0,1,10.94,19.71c2.2,5.491,1.83,10.717-2.25,15.293C1275.56,552.7,1271.35,554.228,1265.99,552.906Zm-.27-36.957c-15.56-20.778-31.07-41.514-46.83-62.551a20.488,20.488,0,0,0-.6,2.325c-.09.775.02,1.6-.1,2.369-.53,3.262-2.91,4.353-5.75,2.628-1.27-.748-2.42-1.7-3.64-2.555-1.53-1.113-3.03-2.219-4.72-3.432-.07.6-.17.843-.09,1.01.56,1.361,1.18,2.709,1.77,4.077.57,1.361,1.19,2.709,1.65,4.13a3.018,3.018,0,0,1-1,3.67,3.13,3.13,0,0,1-3.57-.052,30.176,30.176,0,0,0-2.93-1.275c16.3,21.359,31.82,43.044,48.95,63.439C1254.49,525.091,1260.07,520.526,1265.72,515.949Zm-66.35-54.086c-.93-2.906-1.89-5.437-2.56-8.068-.49-1.935-.38-4.005,1.49-5.229,1.97-1.284,3.75-.194,5.38,1.032,1.1.822,2.19,1.672,3.25,2.542,1.6,1.308,3.12,2.685,4.72,3.966a16.213,16.213,0,0,0,2.01,1.149c-.58-4.736-1.07-9.1-1.61-13.437-5.77-3.561-11.52-7.086-17.06-10.5-3.14,1.9-5.94,3.582-8.8,5.316,1.7,5.919,3.34,11.705,4.98,17.519.09.321.18.668.24,1.009a4.806,4.806,0,0,0,3.41,3.5C1196.24,461.187,1197.74,461.434,1199.37,461.863Zm59.77,80.749c2.44,1.648,4.39,3.2,6.59,4.4a6.8,6.8,0,0,0,6.03.55,12.4,12.4,0,0,0,6.55-6.261c1.24-2.544-1.51-7.586-1.69-8.136C1270.78,536.331,1265.35,539.277,1259.14,542.612Zm13.35-16.274c-6.11,3.628-11.77,7.048-17.66,10.554.8.922,1.42,1.645,2.4,2.764,5.61-3.553,11.1-7.017,16.88-10.671C1273.76,528.418,1273.17,527.465,1272.49,526.338Zm-3.9-6.794c-5.71,4.709-11.14,9.165-16.57,13.622.08.14.17.252.25.392,5.94-3.644,11.87-7.288,18.05-11.1C1269.69,521.371,1269.11,520.392,1268.59,519.544Z"/></g><g class="f"><path class="a" d="M321.124,114.059c2.608-4.437,4.477-8.191,6.914-11.512,1.3-1.763,3.57-4.039,5.322-3.964,1.823.079,4.207,2.387,5.151,4.282a167.278,167.278,0,0,1,7.238,17.152,4.448,4.448,0,0,1-1.11,4.625c-1.139,1.3-3.771-1.22-4.492-2.475-2.71-4.808-4.953-9.9-7.568-15.317-1.83,3.114-3.3,5.737-4.891,8.323-4.282,6.905-9.146,7.417-14.308,1.181-7.312-8.815-14.4-17.83-21.6-26.768-.863-1.077-1.758-2.1-2.681-3.138-1.242-1.77-1.662-1.31-1.127.39,1.078,3.257,2.112,6.527,3.19,9.784,1.91,5.788,3.864,11.563,5.73,17.363.428,1.308.57,2.785.87,4.057a5.2,5.2,0,0,1-2.261,5.185c-1.153.816-2.843,1.4-5.3-.212-5.086-3.437-9.918-7.244-14.706-11.062-10.808-8.594-21.54-17.254-32.844-25.578,2.262,4.3,4.492,8.649,6.832,12.879,5.16,9.359,10.5,18.6,15.513,28.02,1.733,3.225,4.424,6.92.985,10.481-3.237,3.345-7.068,1.209-10.429-.073-10.548-4.073-20.994-8.382-31.5-12.58-1.063-.419-2.179-.685-4.385-1.385,3.732,6.123,6.693,11.587,10.246,16.616,7.464,10.592,15.26,21,22.906,31.479,5.1,6.974,3.53,10.859-5.245,11.981-10.971,1.421-22.02,2.466-33.038,3.712-2.046.236-4.032.689-7.245,1.255a44.185,44.185,0,0,0,4.122,2.6q19.653,9.33,39.365,18.619c3.455,1.63,7.713,2.722,8.4,7.083.723,4.563-3.339,6.447-6.367,8.736a74.187,74.187,0,0,0-9.428,7.77c3.483-.008,6.938-.032,10.422-.041,2.844,0,5.7-.22,8.5.045,1,.088,2.7,1.386,2.634,2.009a3.025,3.025,0,0,1-2.091,3.114,7.769,7.769,0,0,1-2.98.551c-6.963.2-13.923.59-20.872.323-2.041-.092-4.923-1.616-5.723-3.246-.657-1.365.679-4.466,2.1-5.794,3.576-3.41,7.727-6.274,11.63-9.352,1.266-1.009,2.588-1.986,4.37-3.364-3.111-1.58-5.688-2.859-8.278-4.181q-20.292-10.244-40.568-20.515a16.2,16.2,0,0,1-2.568-1.677c-2.638-2.194-2.735-5.593.242-7.286a25.926,25.926,0,0,1,8.962-3.221c11.461-1.62,23-2.864,34.506-4.239,1.242-.14,2.444-.34,4.156-.582-5.469-7.622-10.841-14.712-15.761-22.06-5.878-8.773-11.47-17.715-17.046-26.684-1.691-2.724-4.309-5.716-1.755-9.044s6.443-2.372,9.668-1.241c10.172,3.566,20.235,7.51,30.322,11.285a15.275,15.275,0,0,0,5.55,1.311q-4.923-9.573-9.889-19.133c-4.855-9.369-9.77-18.7-14.581-28.079-1.155-2.235-2.654-4.776-.225-7,2.489-2.263,5.2-1.09,7.426.538,9.069,6.652,18.151,13.347,27.047,20.231,7.162,5.57,14.074,11.438,22.056,16.885-1.4-4.616-3-9.159-4.176-13.834-1.512-5.892-2.875-11.847-3.844-17.836-.309-1.829.457-5.106,1.572-5.539a6.96,6.96,0,0,1,6.024,1.4c4.759,4.758,9.175,9.909,13.459,15.095C309.4,99.137,314.776,106.085,321.124,114.059Z"/></g><g class="g"><path class="a" d="M1121.32,274.113c-1.91,3.255-3.28,6.008-5.07,8.444-.95,1.293-2.62,2.963-3.9,2.908-1.34-.058-3.09-1.751-3.78-3.141a122.637,122.637,0,0,1-5.31-12.581,3.271,3.271,0,0,1,.81-3.393c.84-.955,2.77.895,3.3,1.815,1.99,3.527,3.63,7.264,5.55,11.236,1.34-2.284,2.42-4.208,3.59-6.105,3.14-5.065,6.71-5.441,10.49-.867,5.37,6.467,10.56,13.08,15.85,19.635.63.79,1.29,1.54,1.96,2.3.91,1.3,1.22.961.83-.286-.79-2.389-1.55-4.787-2.34-7.177-1.4-4.245-2.83-8.482-4.2-12.735-.32-.96-.42-2.044-.64-2.977a3.816,3.816,0,0,1,1.66-3.8c.84-.6,2.08-1.028,3.88.156,3.74,2.521,7.28,5.313,10.79,8.114,7.93,6.3,15.8,12.656,24.09,18.761-1.66-3.151-3.29-6.344-5.01-9.447-3.78-6.864-7.7-13.642-11.38-20.553-1.27-2.365-3.24-5.075-.72-7.688,2.37-2.453,5.18-.886,7.65.054,7.74,2.987,15.4,6.148,23.11,9.228.78.307,1.6.5,3.22,1.016-2.74-4.492-4.91-8.5-7.52-12.189-5.48-7.769-11.19-15.407-16.8-23.09-3.74-5.115-2.59-7.965,3.85-8.788,8.04-1.042,16.15-1.809,24.23-2.723,1.5-.173,2.96-.506,5.31-.921a31.758,31.758,0,0,0-3.02-1.9q-14.415-6.843-28.87-13.657c-2.54-1.2-5.66-2-6.17-5.2-.53-3.346,2.45-4.729,4.67-6.407a54.5,54.5,0,0,0,6.92-5.7c-2.56.007-5.09.025-7.65.031-2.08,0-4.18.161-6.23-.033-.73-.064-1.98-1.017-1.94-1.474a2.228,2.228,0,0,1,1.54-2.284,5.681,5.681,0,0,1,2.18-.4c5.11-.149,10.22-.433,15.31-.237a5.691,5.691,0,0,1,4.2,2.381c.48,1-.5,3.276-1.54,4.25-2.62,2.5-5.66,4.6-8.53,6.86-.92.74-1.89,1.456-3.2,2.467,2.28,1.16,4.17,2.1,6.07,3.067q14.88,7.514,29.76,15.048a11.927,11.927,0,0,1,1.88,1.23c1.94,1.61,2.01,4.1-.18,5.345a18.935,18.935,0,0,1-6.57,2.363c-8.41,1.188-16.87,2.1-25.31,3.109-.91.1-1.79.25-3.05.426,4.01,5.592,7.95,10.792,11.56,16.182,4.31,6.436,8.42,12.995,12.51,19.574,1.24,2,3.16,4.192,1.28,6.633s-4.72,1.74-7.09.91c-7.46-2.615-14.84-5.508-22.24-8.277a11.227,11.227,0,0,0-4.07-.962c2.41,4.681,4.81,9.362,7.25,14.035,3.56,6.872,7.17,13.716,10.7,20.6.85,1.639,1.94,3.5.16,5.134-1.82,1.66-3.81.8-5.44-.394-6.66-4.88-13.32-9.791-19.84-14.84-5.26-4.085-10.33-8.39-16.18-12.386,1.03,3.387,2.2,6.719,3.06,10.148,1.11,4.322,2.11,8.69,2.82,13.083.23,1.342-.33,3.745-1.15,4.063a5.1,5.1,0,0,1-4.42-1.024c-3.49-3.49-6.73-7.268-9.87-11.072C1129.93,285.058,1125.98,279.962,1121.32,274.113Z"/></g></g></svg>